<svg width="157" height="60" viewBox="0 0 157 60" fill="none" xmlns="http://www.w3.org/2000/svg">
<g clip-path="url(#clip0_597_1916)">
<path d="M41.1401 26.8421C40.5804 24.9122 39.5621 23.1464 38.1721 21.6953C36.7821 20.2442 35.0617 19.1509 33.1577 18.5088C31.2766 17.9612 29.2993 17.8267 27.3614 18.1143C25.4234 18.402 23.5705 19.1051 21.9296 20.1754C21.7946 20.3107 21.6252 20.4067 21.4398 20.4531C21.2544 20.4994 21.0598 20.4944 20.877 20.4386C20.5084 20.3192 20.1763 20.1079 19.9121 19.8245C19.7197 19.4774 19.6575 19.0731 19.7366 18.6842C19.7869 18.4975 19.8751 18.3233 19.9959 18.1723C20.1167 18.0214 20.2673 17.897 20.4384 17.807C25.0875 15.0877 29.6489 14.3859 34.0349 15.7895C36.1942 16.5077 38.1656 17.6996 39.8047 19.2781C41.4439 20.8566 42.7094 22.7816 43.5085 24.9123H49.3857C48.184 20.1719 45.2871 16.0361 41.2427 13.2868C37.1983 10.5376 32.2868 9.36537 27.4368 9.99188C22.5868 10.6184 18.1343 13.0002 14.9214 16.6869C11.7084 20.3737 9.95749 25.1098 9.99977 30C9.99977 30.7895 10.0875 31.4912 10.0875 32.2807H17.5436C17.8284 32.2645 18.1107 32.3414 18.348 32.4996C18.5853 32.6578 18.7648 32.8888 18.8594 33.1579C19.4323 35.0811 20.4553 36.8402 21.8434 38.2894C23.2316 39.7385 24.945 40.8361 26.8419 41.4912C28.723 42.0388 30.7002 42.1733 32.6382 41.8856C34.5761 41.598 36.429 40.8949 38.0699 39.8245C38.205 39.6892 38.3743 39.5933 38.5597 39.5469C38.7452 39.5005 38.9398 39.5055 39.1226 39.5614C39.4911 39.6808 39.8232 39.8921 40.0875 40.1754C40.2799 40.5225 40.3421 40.9269 40.2629 41.3158C40.2127 41.5024 40.1244 41.6767 40.0036 41.8276C39.8829 41.9786 39.7323 42.103 39.5612 42.193C36.917 43.9722 33.8008 44.9192 30.6138 44.9123C29.0386 44.9004 27.4732 44.6641 25.9647 44.2105C23.7963 43.5094 21.8162 42.3235 20.1747 40.7428C18.5332 39.162 17.2734 37.2281 16.491 35.0877H10.7015C11.9696 39.7501 14.8828 43.7958 18.9024 46.477C22.9221 49.1582 27.7765 50.2935 32.5683 49.6731C37.3601 49.0527 41.7653 46.7186 44.9696 43.1022C48.174 39.4858 49.9608 34.8316 49.9998 30C50.0161 29.2679 49.9868 28.5355 49.9121 27.807H42.5436C42.2445 27.7872 41.9563 27.6872 41.7093 27.5174C41.4623 27.3476 41.2657 27.1143 41.1401 26.8421Z" fill="#100A42"/>
<path d="M30.0841 38.7495C31.811 38.7329 33.4944 38.2056 34.9222 37.2341C36.3501 36.2626 37.4585 34.8903 38.1078 33.2901C38.7572 31.6898 38.9185 29.9332 38.5715 28.2414C38.2244 26.5497 37.3845 24.9985 36.1575 23.7832C34.9305 22.5679 33.3713 21.7428 31.6763 21.412C29.9813 21.0811 28.2263 21.2592 26.6324 21.9239C25.0384 22.5886 23.6768 23.71 22.719 25.1471C21.7612 26.5841 21.2501 28.2725 21.25 29.9995C21.2499 31.1557 21.479 32.3004 21.924 33.3675C22.369 34.4346 23.021 35.403 23.8425 36.2166C24.6639 37.0302 25.6385 37.673 26.7098 38.1077C27.7811 38.5425 28.928 38.7606 30.0841 38.7495Z" fill="white"/>
</g>
<path d="M59.0114 35.5V23.8636H61.4716V28.6648H66.4659V23.8636H68.9205V35.5H66.4659V30.6932H61.4716V35.5H59.0114ZM74.8807 35.6705C73.983 35.6705 73.2102 35.4886 72.5625 35.125C71.9186 34.7576 71.4223 34.2386 71.0739 33.5682C70.7254 32.8939 70.5511 32.0966 70.5511 31.1761C70.5511 30.2784 70.7254 29.4905 71.0739 28.8125C71.4223 28.1345 71.9129 27.6061 72.5455 27.2273C73.1818 26.8485 73.928 26.6591 74.7841 26.6591C75.3598 26.6591 75.8958 26.7519 76.392 26.9375C76.892 27.1193 77.3277 27.3939 77.6989 27.7614C78.0739 28.1288 78.3655 28.5909 78.5739 29.1477C78.7822 29.7008 78.8864 30.3485 78.8864 31.0909V31.7557H71.517V30.2557H76.608C76.608 29.9072 76.5322 29.5985 76.3807 29.3295C76.2292 29.0606 76.0189 28.8504 75.75 28.6989C75.4848 28.5436 75.1761 28.4659 74.8239 28.4659C74.4564 28.4659 74.1307 28.5511 73.8466 28.7216C73.5663 28.8883 73.3466 29.1136 73.1875 29.3977C73.0284 29.678 72.947 29.9905 72.9432 30.3352V31.7614C72.9432 32.1932 73.0227 32.5663 73.1818 32.8807C73.3447 33.1951 73.5739 33.4375 73.8693 33.608C74.1648 33.7784 74.5152 33.8636 74.9205 33.8636C75.1894 33.8636 75.4356 33.8258 75.6591 33.75C75.8826 33.6742 76.0739 33.5606 76.233 33.4091C76.392 33.2576 76.5133 33.072 76.5966 32.8523L78.8352 33C78.7216 33.5379 78.4886 34.0076 78.1364 34.4091C77.7879 34.8068 77.3371 35.1174 76.7841 35.3409C76.2348 35.5606 75.6004 35.6705 74.8807 35.6705ZM82.8864 23.8636V35.5H80.4659V23.8636H82.8864ZM84.8253 38.7727V26.7727H87.2116V28.2386H87.3196C87.4257 28.0038 87.5791 27.7652 87.7798 27.5227C87.9844 27.2765 88.2495 27.072 88.5753 26.9091C88.9048 26.7424 89.3139 26.6591 89.8026 26.6591C90.4389 26.6591 91.026 26.8258 91.5639 27.1591C92.1018 27.4886 92.5317 27.9867 92.8537 28.6534C93.1757 29.3163 93.3366 30.1477 93.3366 31.1477C93.3366 32.1212 93.1795 32.9432 92.8651 33.6136C92.5545 34.2803 92.1302 34.786 91.5923 35.1307C91.0582 35.4716 90.4598 35.642 89.7969 35.642C89.3272 35.642 88.9276 35.5644 88.598 35.4091C88.2723 35.2538 88.0052 35.0587 87.7969 34.8239C87.5885 34.5852 87.4295 34.3447 87.3196 34.1023H87.2457V38.7727H84.8253ZM87.1946 31.1364C87.1946 31.6553 87.2666 32.108 87.4105 32.4943C87.5545 32.8807 87.7628 33.1818 88.0355 33.3977C88.3082 33.6098 88.6397 33.7159 89.0298 33.7159C89.4238 33.7159 89.7571 33.608 90.0298 33.392C90.3026 33.1723 90.509 32.8693 90.6491 32.483C90.7931 32.0928 90.8651 31.6439 90.8651 31.1364C90.8651 30.6326 90.795 30.1894 90.6548 29.8068C90.5147 29.4242 90.3082 29.125 90.0355 28.9091C89.7628 28.6932 89.4276 28.5852 89.0298 28.5852C88.6359 28.5852 88.3026 28.6894 88.0298 28.8977C87.7609 29.1061 87.5545 29.4015 87.4105 29.7841C87.2666 30.1667 87.1946 30.6174 87.1946 31.1364ZM94.9957 23.8636H98.0298L101.234 31.6818H101.371L104.575 23.8636H107.609V35.5H105.223V27.9261H105.126L102.115 35.4432H100.49L97.4787 27.8977H97.3821V35.5H94.9957V23.8636ZM113.568 35.6705C112.67 35.6705 111.898 35.4886 111.25 35.125C110.606 34.7576 110.11 34.2386 109.761 33.5682C109.413 32.8939 109.239 32.0966 109.239 31.1761C109.239 30.2784 109.413 29.4905 109.761 28.8125C110.11 28.1345 110.6 27.6061 111.233 27.2273C111.869 26.8485 112.616 26.6591 113.472 26.6591C114.047 26.6591 114.583 26.7519 115.08 26.9375C115.58 27.1193 116.015 27.3939 116.386 27.7614C116.761 28.1288 117.053 28.5909 117.261 29.1477C117.47 29.7008 117.574 30.3485 117.574 31.0909V31.7557H110.205V30.2557H115.295C115.295 29.9072 115.22 29.5985 115.068 29.3295C114.917 29.0606 114.706 28.8504 114.438 28.6989C114.172 28.5436 113.864 28.4659 113.511 28.4659C113.144 28.4659 112.818 28.5511 112.534 28.7216C112.254 28.8883 112.034 29.1136 111.875 29.3977C111.716 29.678 111.634 29.9905 111.631 30.3352V31.7614C111.631 32.1932 111.71 32.5663 111.869 32.8807C112.032 33.1951 112.261 33.4375 112.557 33.608C112.852 33.7784 113.203 33.8636 113.608 33.8636C113.877 33.8636 114.123 33.8258 114.347 33.75C114.57 33.6742 114.761 33.5606 114.92 33.4091C115.08 33.2576 115.201 33.072 115.284 32.8523L117.523 33C117.409 33.5379 117.176 34.0076 116.824 34.4091C116.475 34.8068 116.025 35.1174 115.472 35.3409C114.922 35.5606 114.288 35.6705 113.568 35.6705ZM129.892 29.6818C129.892 30.9508 129.652 32.0303 129.17 32.9205C128.693 33.8106 128.042 34.4905 127.216 34.9602C126.394 35.4261 125.47 35.6591 124.443 35.6591C123.409 35.6591 122.481 35.4242 121.659 34.9545C120.837 34.4848 120.188 33.8049 119.71 32.9148C119.233 32.0246 118.994 30.947 118.994 29.6818C118.994 28.4129 119.233 27.3333 119.71 26.4432C120.188 25.553 120.837 24.875 121.659 24.4091C122.481 23.9394 123.409 23.7045 124.443 23.7045C125.47 23.7045 126.394 23.9394 127.216 24.4091C128.042 24.875 128.693 25.553 129.17 26.4432C129.652 27.3333 129.892 28.4129 129.892 29.6818ZM127.398 29.6818C127.398 28.8598 127.275 28.1667 127.028 27.6023C126.786 27.0379 126.443 26.6098 126 26.3182C125.557 26.0265 125.038 25.8807 124.443 25.8807C123.848 25.8807 123.33 26.0265 122.886 26.3182C122.443 26.6098 122.098 27.0379 121.852 27.6023C121.61 28.1667 121.489 28.8598 121.489 29.6818C121.489 30.5038 121.61 31.197 121.852 31.7614C122.098 32.3258 122.443 32.7538 122.886 33.0455C123.33 33.3371 123.848 33.483 124.443 33.483C125.038 33.483 125.557 33.3371 126 33.0455C126.443 32.7538 126.786 32.3258 127.028 31.7614C127.275 31.197 127.398 30.5038 127.398 29.6818ZM137.266 31.7841V26.7727H139.686V35.5H137.362V33.9148H137.271C137.074 34.4261 136.747 34.8371 136.288 35.1477C135.834 35.4583 135.279 35.6136 134.624 35.6136C134.04 35.6136 133.527 35.4811 133.084 35.2159C132.641 34.9508 132.294 34.5739 132.044 34.0852C131.798 33.5966 131.673 33.0114 131.669 32.3295V26.7727H134.089V31.8977C134.093 32.4129 134.232 32.8201 134.504 33.1193C134.777 33.4186 135.143 33.5682 135.601 33.5682C135.893 33.5682 136.165 33.5019 136.419 33.3693C136.673 33.233 136.877 33.0322 137.033 32.767C137.192 32.5019 137.269 32.1742 137.266 31.7841ZM146.264 26.7727V28.5909H141.009V26.7727H146.264ZM142.202 24.6818H144.622V32.8182C144.622 33.0417 144.656 33.2159 144.724 33.3409C144.793 33.4621 144.887 33.5473 145.009 33.5966C145.134 33.6458 145.277 33.6705 145.44 33.6705C145.554 33.6705 145.668 33.661 145.781 33.642C145.895 33.6193 145.982 33.6023 146.043 33.5909L146.423 35.392C146.302 35.4299 146.132 35.4735 145.912 35.5227C145.692 35.5758 145.425 35.608 145.111 35.6193C144.527 35.642 144.016 35.5644 143.577 35.3864C143.141 35.2083 142.802 34.9318 142.56 34.5568C142.317 34.1818 142.198 33.7083 142.202 33.1364V24.6818Z" fill="#100A42"/>
<defs>
<clipPath id="clip0_597_1916">
<rect width="40" height="40" fill="white" transform="translate(10 10)"/>
</clipPath>
</defs>
</svg>
